<svg xmlns="http://www.w3.org/2000/svg" width="1378" height="360" viewBox="0 0 1378 360">
  <g id="chart_" data-name="chart&apos;" transform="translate(-423 -255)">
    <text id="_0_1" data-name="0
1" transform="translate(426 594)" fill="#b9b9b9" font-size="15" font-family="Lato-Regular, Lato"><tspan x="0" y="0">0</tspan><tspan x="0" y="18">1</tspan></text>
    <text id="_1_1" data-name="1
1" transform="translate(716 594)" fill="#b9b9b9" font-size="15" font-family="Lato-Regular, Lato"><tspan x="0" y="0">1</tspan><tspan x="0" y="18">1</tspan></text>
    <text id="_2_1" data-name="2
1" transform="translate(977 594)" fill="#b9b9b9" font-size="15" font-family="Lato-Regular, Lato"><tspan x="0" y="0">2</tspan><tspan x="0" y="18">1</tspan></text>
    <text id="_3_1" data-name="3
1" transform="translate(1238 594)" fill="#b9b9b9" font-size="15" font-family="Lato-Regular, Lato"><tspan x="0" y="0">3</tspan><tspan x="0" y="18">1</tspan></text>
    <text id="_4_1" data-name="4
1" transform="translate(1499 594)" fill="#b9b9b9" font-size="15" font-family="Lato-Regular, Lato"><tspan x="0" y="0">4</tspan><tspan x="0" y="18">1</tspan></text>
    <text id="_0_9" data-name="0
9" transform="translate(658 594)" fill="#b9b9b9" font-size="15" font-family="Lato-Regular, Lato"><tspan x="0" y="0">0</tspan><tspan x="0" y="18">9</tspan></text>
    <text id="_1_9" data-name="1
9" transform="translate(948 594)" fill="#b9b9b9" font-size="15" font-family="Lato-Regular, Lato"><tspan x="0" y="0">1</tspan><tspan x="0" y="18">9</tspan></text>
    <text id="_2_9" data-name="2
9" transform="translate(1209 594)" fill="#b9b9b9" font-size="15" font-family="Lato-Regular, Lato"><tspan x="0" y="0">2</tspan><tspan x="0" y="18">9</tspan></text>
    <text id="_3_9" data-name="3
9" transform="translate(1470 594)" fill="#b9b9b9" font-size="15" font-family="Lato-Regular, Lato"><tspan x="0" y="0">3</tspan><tspan x="0" y="18">9</tspan></text>
    <text id="_4_9" data-name="4
9" transform="translate(1731 594)" fill="#b9b9b9" font-size="15" font-family="Lato-Regular, Lato"><tspan x="0" y="0">4</tspan><tspan x="0" y="18">9</tspan></text>
    <text id="_5_9" data-name="5
9" transform="translate(1789 594)" fill="#b9b9b9" font-size="15" font-family="Lato-Regular, Lato"><tspan x="0" y="0">5</tspan><tspan x="0" y="18">9</tspan></text>
    <text id="_0_2" data-name="0
2" transform="translate(455 594)" fill="#b9b9b9" font-size="15" font-family="Lato-Regular, Lato"><tspan x="0" y="0">0</tspan><tspan x="0" y="18">2</tspan></text>
    <text id="_1_2" data-name="1
2" transform="translate(745 594)" fill="#b9b9b9" font-size="15" font-family="Lato-Regular, Lato"><tspan x="0" y="0">1</tspan><tspan x="0" y="18">2</tspan></text>
    <text id="_2_2" data-name="2
2" transform="translate(1006 594)" fill="#b9b9b9" font-size="15" font-family="Lato-Regular, Lato"><tspan x="0" y="0">2</tspan><tspan x="0" y="18">2</tspan></text>
    <text id="_3_2" data-name="3
2" transform="translate(1267 594)" fill="#b9b9b9" font-size="15" font-family="Lato-Regular, Lato"><tspan x="0" y="0">3</tspan><tspan x="0" y="18">2</tspan></text>
    <text id="_4_2" data-name="4
2" transform="translate(1528 594)" fill="#b9b9b9" font-size="15" font-family="Lato-Regular, Lato"><tspan x="0" y="0">4</tspan><tspan x="0" y="18">2</tspan></text>
    <text id="_1_1-2" data-name="1
1" transform="translate(687 594)" fill="#b9b9b9" font-size="15" font-family="Lato-Regular, Lato"><tspan x="0" y="0">1</tspan><tspan x="0" y="18">1</tspan></text>
    <text id="_0_3" data-name="0
3" transform="translate(484 594)" fill="#b9b9b9" font-size="15" font-family="Lato-Regular, Lato"><tspan x="0" y="0">0</tspan><tspan x="0" y="18">3</tspan></text>
    <text id="_1_3" data-name="1
3" transform="translate(774 594)" fill="#b9b9b9" font-size="15" font-family="Lato-Regular, Lato"><tspan x="0" y="0">1</tspan><tspan x="0" y="18">3</tspan></text>
    <text id="_2_3" data-name="2
3" transform="translate(1035 594)" fill="#b9b9b9" font-size="15" font-family="Lato-Regular, Lato"><tspan x="0" y="0">2</tspan><tspan x="0" y="18">3</tspan></text>
    <text id="_3_3" data-name="3
3" transform="translate(1296 594)" fill="#b9b9b9" font-size="15" font-family="Lato-Regular, Lato"><tspan x="0" y="0">3</tspan><tspan x="0" y="18">3</tspan></text>
    <text id="_4_3" data-name="4
3" transform="translate(1557 594)" fill="#b9b9b9" font-size="15" font-family="Lato-Regular, Lato"><tspan x="0" y="0">4</tspan><tspan x="0" y="18">3</tspan></text>
    <text id="_0_4" data-name="0
4" transform="translate(513 594)" fill="#b9b9b9" font-size="15" font-family="Lato-Regular, Lato"><tspan x="0" y="0">0</tspan><tspan x="0" y="18">4</tspan></text>
    <text id="_1_4" data-name="1
4" transform="translate(803 594)" fill="#b9b9b9" font-size="15" font-family="Lato-Regular, Lato"><tspan x="0" y="0">1</tspan><tspan x="0" y="18">4</tspan></text>
    <text id="_2_4" data-name="2
4" transform="translate(1064 594)" fill="#b9b9b9" font-size="15" font-family="Lato-Regular, Lato"><tspan x="0" y="0">2</tspan><tspan x="0" y="18">4</tspan></text>
    <text id="_3_4" data-name="3
4" transform="translate(1325 594)" fill="#b9b9b9" font-size="15" font-family="Lato-Regular, Lato"><tspan x="0" y="0">3</tspan><tspan x="0" y="18">4</tspan></text>
    <text id="_4_4" data-name="4
4" transform="translate(1586 594)" fill="#b9b9b9" font-size="15" font-family="Lato-Regular, Lato"><tspan x="0" y="0">4</tspan><tspan x="0" y="18">4</tspan></text>
    <text id="_0_5" data-name="0
5" transform="translate(542 594)" fill="#b9b9b9" font-size="15" font-family="Lato-Regular, Lato"><tspan x="0" y="0">0</tspan><tspan x="0" y="18">5</tspan></text>
    <text id="_1_5" data-name="1
5" transform="translate(832 594)" fill="#b9b9b9" font-size="15" font-family="Lato-Regular, Lato"><tspan x="0" y="0">1</tspan><tspan x="0" y="18">5</tspan></text>
    <text id="_2_5" data-name="2
5" transform="translate(1093 594)" fill="#b9b9b9" font-size="15" font-family="Lato-Regular, Lato"><tspan x="0" y="0">2</tspan><tspan x="0" y="18">5</tspan></text>
    <text id="_3_5" data-name="3
5" transform="translate(1354 594)" fill="#b9b9b9" font-size="15" font-family="Lato-Regular, Lato"><tspan x="0" y="0">3</tspan><tspan x="0" y="18">5</tspan></text>
    <text id="_4_5" data-name="4
5" transform="translate(1615 594)" fill="#b9b9b9" font-size="15" font-family="Lato-Regular, Lato"><tspan x="0" y="0">4</tspan><tspan x="0" y="18">5</tspan></text>
    <text id="_0_6" data-name="0
6" transform="translate(571 594)" fill="#b9b9b9" font-size="15" font-family="Lato-Regular, Lato"><tspan x="0" y="0">0</tspan><tspan x="0" y="18">6</tspan></text>
    <text id="_1_6" data-name="1
6" transform="translate(861 594)" fill="#b9b9b9" font-size="15" font-family="Lato-Regular, Lato"><tspan x="0" y="0">1</tspan><tspan x="0" y="18">6</tspan></text>
    <text id="_2_6" data-name="2
6" transform="translate(1122 594)" fill="#b9b9b9" font-size="15" font-family="Lato-Regular, Lato"><tspan x="0" y="0">2</tspan><tspan x="0" y="18">6</tspan></text>
    <text id="_3_6" data-name="3
6" transform="translate(1383 594)" fill="#b9b9b9" font-size="15" font-family="Lato-Regular, Lato"><tspan x="0" y="0">3</tspan><tspan x="0" y="18">6</tspan></text>
    <text id="_4_6" data-name="4
6" transform="translate(1644 594)" fill="#b9b9b9" font-size="15" font-family="Lato-Regular, Lato"><tspan x="0" y="0">4</tspan><tspan x="0" y="18">6</tspan></text>
    <text id="_0_7" data-name="0
7" transform="translate(600 594)" fill="#b9b9b9" font-size="15" font-family="Lato-Regular, Lato"><tspan x="0" y="0">0</tspan><tspan x="0" y="18">7</tspan></text>
    <text id="_1_7" data-name="1
7" transform="translate(890 594)" fill="#b9b9b9" font-size="15" font-family="Lato-Regular, Lato"><tspan x="0" y="0">1</tspan><tspan x="0" y="18">7</tspan></text>
    <text id="_2_7" data-name="2
7" transform="translate(1151 594)" fill="#b9b9b9" font-size="15" font-family="Lato-Regular, Lato"><tspan x="0" y="0">2</tspan><tspan x="0" y="18">7</tspan></text>
    <text id="_3_7" data-name="3
7" transform="translate(1412 594)" fill="#b9b9b9" font-size="15" font-family="Lato-Regular, Lato"><tspan x="0" y="0">3</tspan><tspan x="0" y="18">7</tspan></text>
    <text id="_4_7" data-name="4
7" transform="translate(1673 594)" fill="#b9b9b9" font-size="15" font-family="Lato-Regular, Lato"><tspan x="0" y="0">4</tspan><tspan x="0" y="18">7</tspan></text>
    <text id="_0_8" data-name="0
8" transform="translate(629 594)" fill="#b9b9b9" font-size="15" font-family="Lato-Regular, Lato"><tspan x="0" y="0">0</tspan><tspan x="0" y="18">8</tspan></text>
    <text id="_1_8" data-name="1
8" transform="translate(919 594)" fill="#b9b9b9" font-size="15" font-family="Lato-Regular, Lato"><tspan x="0" y="0">1</tspan><tspan x="0" y="18">8</tspan></text>
    <text id="_2_8" data-name="2
8" transform="translate(1180 594)" fill="#b9b9b9" font-size="15" font-family="Lato-Regular, Lato"><tspan x="0" y="0">2</tspan><tspan x="0" y="18">8</tspan></text>
    <text id="_3_8" data-name="3
8" transform="translate(1441 594)" fill="#b9b9b9" font-size="15" font-family="Lato-Regular, Lato"><tspan x="0" y="0">3</tspan><tspan x="0" y="18">8</tspan></text>
    <text id="_4_8" data-name="4
8" transform="translate(1702 594)" fill="#b9b9b9" font-size="15" font-family="Lato-Regular, Lato"><tspan x="0" y="0">4</tspan><tspan x="0" y="18">8</tspan></text>
    <text id="_5_8" data-name="5
8" transform="translate(1760 594)" fill="#b9b9b9" font-size="15" font-family="Lato-Regular, Lato"><tspan x="0" y="0">5</tspan><tspan x="0" y="18">8</tspan></text>
    <rect id="Rectangle_5" data-name="Rectangle 5" width="15" height="70" transform="translate(423 494)" fill="#226cfc" opacity="0.15"/>
    <rect id="Rectangle_36" data-name="Rectangle 36" width="15" height="135" transform="translate(887 429)" fill="#226cfc"/>
    <rect id="Rectangle_20" data-name="Rectangle 20" width="15" height="135" transform="translate(655 429)" fill="#226cfc"/>
    <rect id="Rectangle_26" data-name="Rectangle 26" width="15" height="94" transform="translate(1119 470)" fill="#226cfc"/>
    <rect id="Rectangle_44" data-name="Rectangle 44" width="15" height="120" transform="translate(1380 444)" fill="#226cfc"/>
    <rect id="Rectangle_6" data-name="Rectangle 6" width="15" height="115" transform="translate(452 449)" fill="#226cfc" opacity="0.15"/>
    <rect id="Rectangle_35" data-name="Rectangle 35" width="15" height="101" transform="translate(916 463)" fill="#226cfc"/>
    <rect id="Rectangle_19" data-name="Rectangle 19" width="15" height="164" transform="translate(684 400)" fill="#226cfc"/>
    <rect id="Rectangle_27" data-name="Rectangle 27" width="15" height="120" transform="translate(1148 444)" fill="#226cfc"/>
    <rect id="Rectangle_43" data-name="Rectangle 43" width="15" height="101" transform="translate(1409 463)" fill="#226cfc"/>
    <rect id="Rectangle_7" data-name="Rectangle 7" width="15" height="92" transform="translate(481 472)" fill="#226cfc" opacity="0.15"/>
    <rect id="Rectangle_33" data-name="Rectangle 33" width="15" height="70" transform="translate(945 494)" fill="#226cfc"/>
    <rect id="Rectangle_18" data-name="Rectangle 18" width="15" height="143" transform="translate(713 421)" fill="#226cfc"/>
    <rect id="Rectangle_28" data-name="Rectangle 28" width="15" height="70" transform="translate(1177 494)" fill="#226cfc"/>
    <rect id="Rectangle_41" data-name="Rectangle 41" width="15" height="135" transform="translate(1438 429)" fill="#226cfc"/>
    <rect id="Rectangle_8" data-name="Rectangle 8" width="15" height="106" transform="translate(510 458)" fill="#226cfc" opacity="0.15"/>
    <rect id="Rectangle_34" data-name="Rectangle 34" width="15" height="129" transform="translate(974 435)" fill="#226cfc"/>
    <rect id="Rectangle_17" data-name="Rectangle 17" width="15" height="115" transform="translate(742 449)" fill="#226cfc"/>
    <rect id="Rectangle_24" data-name="Rectangle 24" width="15" height="177" transform="translate(1206 387)" fill="#226cfc"/>
    <rect id="Rectangle_42" data-name="Rectangle 42" width="15" height="188" transform="translate(1467 376)" fill="#226cfc"/>
    <rect id="Rectangle_9" data-name="Rectangle 9" width="15" height="123" transform="translate(539 441)" fill="#226cfc" opacity="0.15"/>
    <rect id="Rectangle_30" data-name="Rectangle 30" width="15" height="177" transform="translate(1003 387)" fill="#226cfc"/>
    <rect id="Rectangle_16" data-name="Rectangle 16" width="15" height="218" transform="translate(771 346)" fill="#226cfc"/>
    <rect id="Rectangle_25" data-name="Rectangle 25" width="15" height="109" transform="translate(1235 455)" fill="#226cfc"/>
    <rect id="Rectangle_38" data-name="Rectangle 38" width="15" height="248" transform="translate(1496 316)" fill="#226cfc"/>
    <rect id="Rectangle_46" data-name="Rectangle 46" width="15" height="129" transform="translate(1612 435)" fill="#226cfc" opacity="0.15"/>
    <rect id="Rectangle_10" data-name="Rectangle 10" width="15" height="171" transform="translate(568 393)" fill="#226cfc" opacity="0.15"/>
    <rect id="Rectangle_31" data-name="Rectangle 31" width="15" height="248" transform="translate(1032 316)" fill="#226cfc"/>
    <rect id="Rectangle_15" data-name="Rectangle 15" width="15" height="309" transform="translate(800 255)" fill="#226cfc"/>
    <rect id="Rectangle_21" data-name="Rectangle 21" width="15" height="129" transform="translate(1264 435)" fill="#226cfc"/>
    <rect id="Rectangle_39" data-name="Rectangle 39" width="15" height="153" transform="translate(1525 411)" fill="#226cfc"/>
    <rect id="Rectangle_47" data-name="Rectangle 47" width="15" height="183" transform="translate(1641 381)" fill="#226cfc" opacity="0.15"/>
    <rect id="Rectangle_11" data-name="Rectangle 11" width="15" height="152" transform="translate(597 412)" fill="#226cfc" opacity="0.15"/>
    <rect id="Rectangle_32" data-name="Rectangle 32" width="15" height="129" transform="translate(1061 435)" fill="#226cfc"/>
    <rect id="Rectangle_14" data-name="Rectangle 14" width="15" height="257" transform="translate(829 307)" fill="#226cfc"/>
    <rect id="Rectangle_22" data-name="Rectangle 22" width="15" height="70" transform="translate(1293 494)" fill="#226cfc"/>
    <rect id="Rectangle_40" data-name="Rectangle 40" width="15" height="70" transform="translate(1554 494)" fill="#226cfc" opacity="0.15"/>
    <rect id="Rectangle_48" data-name="Rectangle 48" width="15" height="102" transform="translate(1670 462)" fill="#226cfc" opacity="0.15"/>
    <rect id="Rectangle_49" data-name="Rectangle 49" width="15" height="51" transform="translate(1699 513)" fill="#226cfc" opacity="0.15"/>
    <rect id="Rectangle_50" data-name="Rectangle 50" width="15" height="70" transform="translate(1728 494)" fill="#226cfc" opacity="0.15"/>
    <rect id="Rectangle_51" data-name="Rectangle 51" width="15" height="129" transform="translate(1757 435)" fill="#226cfc" opacity="0.15"/>
    <rect id="Rectangle_52" data-name="Rectangle 52" width="15" height="70" transform="translate(1786 494)" fill="#226cfc" opacity="0.15"/>
    <rect id="Rectangle_12" data-name="Rectangle 12" width="15" height="101" transform="translate(626 463)" fill="#226cfc" opacity="0.15"/>
    <rect id="Rectangle_29" data-name="Rectangle 29" width="15" height="164" transform="translate(1090 400)" fill="#226cfc"/>
    <rect id="Rectangle_45" data-name="Rectangle 45" width="15" height="217" transform="translate(1351 347)" fill="#226cfc"/>
    <rect id="Rectangle_13" data-name="Rectangle 13" width="15" height="164" transform="translate(858 400)" fill="#226cfc"/>
    <rect id="Rectangle_23" data-name="Rectangle 23" width="15" height="164" transform="translate(1322 400)" fill="#226cfc"/>
    <rect id="Rectangle_37" data-name="Rectangle 37" width="15" height="109" transform="translate(1583 455)" fill="#226cfc" opacity="0.15"/>
  </g>
</svg>
