<svg xmlns="http://www.w3.org/2000/svg" width="23.447" height="23.447" viewBox="0 0 23.447 23.447">
  <g id="i7" transform="translate(0.75 -1.25)">
    <ellipse id="Ellipse_2" data-name="Ellipse 2" cx="2.195" cy="2.195" rx="2.195" ry="2.195" transform="translate(8.779 8.047)" fill="none" stroke="#006cff" stroke-linecap="round" stroke-linejoin="round" stroke-width="1.5"/>
    <path id="Path_10" data-name="Path 10" d="M22.447,12.937V10.011l-3.185-.531a7.993,7.993,0,0,0-.878-2.1l1.877-2.634L18.2,2.68,15.571,4.556a7.993,7.993,0,0,0-2.1-.871L12.937.5H10.011L9.479,3.685a7.993,7.993,0,0,0-2.1.871L4.743,2.68,2.68,4.743,4.556,7.377a7.993,7.993,0,0,0-.871,2.1L.5,10.011v2.926l3.185.531a7.993,7.993,0,0,0,.871,2.1L2.68,18.2l2.063,2.063,2.634-1.876a7.993,7.993,0,0,0,2.1.878l.531,3.178h2.926l.531-3.185a7.993,7.993,0,0,0,2.1-.878L18.2,20.261,20.267,18.2l-1.876-2.634a7.993,7.993,0,0,0,.878-2.1Z" transform="translate(-0.5 1.5)" fill="none" stroke="#006cff" stroke-linecap="round" stroke-linejoin="round" stroke-width="1.5"/>
    <line id="Line_3" data-name="Line 3" y2="2.926" transform="translate(10.974 14.437)" fill="none" stroke="#006cff" stroke-linecap="round" stroke-linejoin="round" stroke-width="1.5"/>
  </g>
</svg>
